<?xml version="1.0" encoding="UTF-8" standalone="no"?>
<!DOCTYPE svg PUBLIC "-//W3C//DTD SVG 20010904//EN"
              "http://www.w3.org/TR/2001/REC-SVG-20010904/DTD/svg10.dtd">
<!-- Created with GIMP (https://www.gimp.org/) -->

<svg xmlns="http://www.w3.org/2000/svg"
     width="2.66667in" height="2.66667in"
     viewBox="0 0 192 192">
  <path id="Green Balls"
        fill="#5c913c" stroke="none" stroke-width="0"
        d="M 132.04,43.02
           C 129.44,44.95 127.62,46.48 127.33,50.00
             126.84,55.98 133.37,62.10 139.94,58.43
             147.45,54.24 144.85,38.71 132.04,43.02 Z
           M 168.23,97.02
           C 161.57,103.15 165.92,114.17 174.99,112.57
             183.02,111.15 183.46,101.23 179.43,97.74
             176.52,95.22 171.51,95.82 168.23,97.02 Z
           M 122.17,159.70
           C 111.81,165.27 118.10,179.98 128.00,176.26
             138.01,172.50 134.77,157.02 122.17,159.70 Z" />
  <path id="Green Squiggle"
        fill="#77b256" stroke="none" stroke-width="0"
        d="M 22.00,5.53
           C 19.13,6.45 17.45,6.99 15.22,9.22
             11.46,12.98 8.45,22.80 9.76,27.98
             11.30,34.08 17.50,34.56 20.26,31.49
             22.66,28.82 21.61,23.63 24.09,20.19
             26.35,17.03 28.84,18.24 30.56,21.11
             33.97,26.79 33.10,35.75 32.08,42.00
             32.08,42.00 25.05,76.00 25.05,76.00
             23.75,81.10 25.59,86.93 31.96,85.64
             38.05,84.42 40.20,69.43 41.34,64.00
             43.64,52.99 46.76,32.81 44.32,22.00
             41.45,9.32 35.30,3.34 22.00,5.53 Z
           M 171.00,131.99
           C 165.65,137.69 160.98,136.30 156.65,142.05
             150.95,149.62 153.88,159.31 163.00,162.03
             168.65,163.76 174.28,162.13 180.00,162.03
             174.84,164.83 168.51,166.22 164.80,171.10
             158.16,179.87 164.03,191.35 175.00,191.96
             178.00,192.12 182.15,191.98 184.57,189.99
             187.65,187.47 187.71,181.47 183.77,179.88
             181.48,178.75 177.49,179.67 175.00,179.88
             180.07,174.65 185.91,175.81 190.26,168.98
             191.53,166.99 191.84,165.32 191.95,163.00
             192.75,146.47 177.33,149.91 167.00,150.00
             172.12,147.16 178.93,145.10 182.15,139.96
             183.46,137.86 183.92,135.45 183.92,133.00
             183.92,123.44 175.62,119.19 167.00,120.11
             158.24,121.04 157.40,129.23 162.15,131.99
             164.73,133.46 168.25,132.49 171.00,131.99 Z" />
  <path id="In Cone"
        fill="#9f031e" stroke="none" stroke-width="0"
        d="M 91.00,60.00
           C 94.89,63.36 99.19,63.49 100.34,67.10
             101.58,70.96 97.83,74.70 92.00,73.20
             79.54,69.98 74.92,55.84 88.00,49.57
             90.71,48.27 93.08,48.14 96.00,48.00
             92.52,41.79 79.03,36.35 72.00,36.04
             52.67,35.20 63.63,58.19 69.06,67.00
             82.12,88.15 105.21,112.16 127.00,124.27
             133.23,127.73 139.70,131.02 147.00,130.97
             150.44,130.95 153.92,130.48 155.40,126.89
             156.09,125.23 156.03,121.85 155.99,120.00
             155.86,114.65 151.12,100.75 146.47,97.92
             145.00,97.17 143.55,97.41 141.99,97.92
             135.84,99.35 130.27,104.11 126.00,106.04
             123.30,107.27 120.69,107.47 118.78,104.76
             114.07,98.09 128.77,92.08 132.98,89.74
             135.31,88.44 137.95,87.11 136.84,83.96
             136.24,82.27 132.87,78.51 131.58,77.00
             127.94,72.78 114.92,58.87 110.00,57.77
             107.76,57.26 105.24,58.32 103.00,58.68
             97.95,59.48 96.83,58.34 91.00,60.00 Z" />
  <path id="Inner Body"
        fill="#ea596e" stroke="none" stroke-width="0"
        d="M 67.00,66.00
           C 67.00,66.00 36.00,117.87 36.00,117.87
             37.64,117.79 39.34,117.44 41.00,117.87
             54.72,120.28 43.60,140.42 34.31,129.86
             32.76,128.11 32.62,127.10 32.00,125.00
             32.00,125.00 9.00,161.00 9.00,161.00
             6.62,164.94 0.79,172.97 0.24,177.00
             -0.63,183.28 3.90,187.11 8.00,191.00
             8.00,191.00 29.08,167.00 29.08,167.00
             29.08,167.00 69.20,118.00 69.20,118.00
             69.20,118.00 83.08,101.00 83.08,101.00
             83.08,101.00 87.84,93.00 87.84,93.00
             87.84,93.00 81.80,84.00 81.80,84.00
             81.80,84.00 69.00,66.00 69.00,66.00
             69.00,66.00 67.00,66.00 67.00,66.00 Z
           M 23.00,123.00
           C 23.00,123.00 23.00,124.00 23.00,124.00
             23.00,124.00 24.00,123.00 24.00,123.00
             24.00,123.00 23.00,123.00 23.00,123.00 Z
           M 137.00,138.00
           C 137.00,138.00 137.00,139.00 137.00,139.00
             137.00,139.00 138.00,138.00 138.00,138.00
             138.00,138.00 137.00,138.00 137.00,138.00 Z
           M 110.00,150.00
           C 110.00,150.00 110.00,151.00 110.00,151.00
             110.00,151.00 111.00,150.00 111.00,150.00
             111.00,150.00 110.00,150.00 110.00,150.00 Z
           M 25.00,188.00
           C 25.00,188.00 25.00,189.00 25.00,189.00
             25.00,189.00 26.00,188.00 26.00,188.00
             26.00,188.00 25.00,188.00 25.00,188.00 Z" />
  <path id="Outer Body"
        fill="#dc2e44" stroke="none" stroke-width="0"
        d="M 61.00,39.00
           C 61.00,39.00 35.98,95.00 35.98,95.00
             35.98,95.00 1.00,174.00 1.00,174.00
             6.99,169.22 16.38,151.45 21.05,144.00
             21.05,144.00 29.51,130.00 29.51,130.00
             29.51,130.00 33.08,122.04 33.08,122.04
             33.08,122.04 38.77,114.91 38.77,114.91
             38.77,114.91 51.19,95.00 51.19,95.00
             51.19,95.00 69.00,67.00 69.00,67.00
             71.35,73.13 76.12,78.91 80.26,84.00
             81.98,86.11 86.03,90.26 86.03,93.00
             86.03,95.58 82.68,99.07 81.08,101.00
             81.08,101.00 68.80,116.00 68.80,116.00
             68.80,116.00 25.42,169.00 25.42,169.00
             21.73,173.50 11.80,187.54 7.00,189.00
             13.53,195.44 21.18,190.28 28.00,187.28
             28.00,187.28 42.00,181.28 42.00,181.28
             42.00,181.28 122.00,145.72 122.00,145.72
             122.00,145.72 143.00,136.28 143.00,136.28
             147.01,134.54 150.55,133.81 153.00,130.00
             140.69,132.20 130.97,126.58 121.00,119.81
             103.33,107.79 85.96,90.52 73.72,73.00
             66.94,63.30 59.18,51.12 63.00,39.00
             63.00,39.00 61.00,39.00 61.00,39.00 Z
           M 1.00,183.00
           C 1.00,183.00 3.00,187.00 3.00,187.00
             3.00,187.00 1.00,183.00 1.00,183.00 Z
           M 5.00,188.00
           C 5.00,188.00 5.00,189.00 5.00,189.00
             5.00,189.00 6.00,188.00 6.00,188.00
             6.00,188.00 5.00,188.00 5.00,188.00 Z" />
  <path id="Purple Squiggle/Ball"
        fill="#aa8dd8" stroke="none" stroke-width="0"
        d="M 106.00,16.00
           C 99.93,18.01 92.52,16.32 87.21,20.65
             80.07,26.47 81.84,36.68 89.04,41.44
             93.22,44.20 98.27,44.75 103.00,46.00
             95.94,49.27 86.52,47.42 81.85,55.02
             80.51,57.20 80.08,59.48 80.57,62.00
             80.89,63.68 81.70,65.52 82.70,66.91
             85.52,70.81 97.85,76.92 100.16,69.86
             101.91,64.48 94.64,62.83 91.00,62.00
             91.00,62.00 91.00,59.00 91.00,59.00
             96.18,58.07 107.29,58.24 110.87,56.02
             118.38,51.35 116.17,40.41 109.95,35.80
             106.07,32.93 99.80,32.39 95.00,31.00
             101.75,29.08 107.77,31.10 113.90,26.35
             123.07,19.24 118.54,6.03 108.00,3.42
             102.83,2.13 91.95,4.26 97.60,11.78
             99.55,14.36 103.07,15.11 106.00,16.00 Z
           M 169.00,79.42
           C 146.33,82.66 147.89,81.28 127.00,93.09
             124.25,94.65 119.94,97.09 118.76,100.17
             117.68,102.97 118.85,106.13 122.06,106.55
             124.95,106.94 136.23,99.94 140.00,98.24
             147.59,94.81 165.35,92.06 174.00,91.32
             179.67,91.15 186.09,93.87 189.69,91.32
             192.63,88.89 193.04,82.80 188.85,80.89
             184.77,79.02 173.64,78.86 169.00,79.42 Z
           M 9.00,84.57
           C 5.22,85.72 2.30,87.05 0.74,91.02
             -2.50,99.24 3.48,109.56 13.00,107.40
             26.01,104.44 24.61,83.30 9.00,84.57 Z" />
  <path id="Yellow Balls"
        fill="#ffcc4c" stroke="none" stroke-width="0"
        d="M 145.00,10.74
           C 130.71,18.39 140.45,36.55 153.00,32.30
             161.24,29.51 163.38,18.25 156.78,12.57
             153.25,9.54 149.22,9.72 145.00,10.74 Z
           M 171.00,36.78
           C 160.42,42.31 164.88,55.30 175.00,53.76
             185.52,52.15 183.91,34.73 171.00,36.78 Z
           M 154.04,58.74
           C 144.03,64.58 150.08,78.65 160.96,74.40
             166.42,72.27 167.43,64.36 163.57,60.57
             160.72,57.77 157.61,57.91 154.04,58.74 Z
           M 36.11,119.02
           C 26.74,126.61 36.64,135.94 43.87,131.82
             48.36,129.27 48.90,122.79 44.77,119.60
             41.98,117.44 39.13,117.98 36.11,119.02 Z" />
</svg>
